<svg width="132" height="50" viewBox="0 0 132 50" fill="none" xmlns="http://www.w3.org/2000/svg">
<path d="M56.332 26.224C56.164 25.96 56.008 25.6 55.864 25.144C55.72 24.688 55.648 24.208 55.648 23.704C55.648 22.768 55.852 22.096 56.26 21.688C56.692 21.28 57.244 21.076 57.916 21.076H73.612C73.78 21.34 73.936 21.7 74.08 22.156C74.224 22.612 74.296 23.092 74.296 23.596C74.296 24.532 74.08 25.204 73.648 25.612C73.24 26.02 72.7 26.224 72.028 26.224H68.032V42.856C67.768 42.928 67.348 43 66.772 43.072C66.22 43.144 65.668 43.18 65.116 43.18C64.564 43.18 64.072 43.132 63.64 43.036C63.232 42.964 62.884 42.82 62.596 42.604C62.308 42.388 62.092 42.088 61.948 41.704C61.804 41.32 61.732 40.816 61.732 40.192V26.224H56.332ZM87.9513 26.512C88.2153 26.392 88.6233 26.26 89.1753 26.116C89.7513 25.948 90.3273 25.864 90.9033 25.864C91.9113 25.864 92.7513 26.02 93.4233 26.332C94.0953 26.62 94.5033 27.052 94.6473 27.628C94.9113 28.612 95.1513 29.536 95.3672 30.4C95.6073 31.24 95.8353 32.056 96.0513 32.848C96.2673 33.616 96.4713 34.384 96.6633 35.152C96.8793 35.92 97.0833 36.724 97.2753 37.564H97.4553C97.6713 36.1 97.8633 34.708 98.0312 33.388C98.1993 32.044 98.3553 30.736 98.4993 29.464C98.6433 28.168 98.7873 26.896 98.9313 25.648C99.0753 24.376 99.2193 23.092 99.3633 21.796C100.251 21.292 101.199 21.04 102.207 21.04C103.095 21.04 103.863 21.232 104.511 21.616C105.159 22 105.483 22.648 105.483 23.56C105.483 24.088 105.423 24.844 105.303 25.828C105.207 26.788 105.063 27.868 104.871 29.068C104.703 30.268 104.499 31.528 104.259 32.848C104.019 34.168 103.767 35.428 103.503 36.628C103.239 37.828 102.963 38.92 102.675 39.904C102.411 40.864 102.159 41.608 101.919 42.136C101.559 42.472 100.971 42.748 100.155 42.964C99.3393 43.18 98.4993 43.288 97.6353 43.288C96.5073 43.288 95.5473 43.144 94.7553 42.856C93.9873 42.544 93.5193 42.112 93.3513 41.56C93.0393 40.6 92.7033 39.46 92.3433 38.14C91.9833 36.82 91.5993 35.368 91.1913 33.784C90.8553 35.344 90.5073 36.868 90.1473 38.356C89.7873 39.844 89.4633 41.104 89.1753 42.136C88.8153 42.472 88.2753 42.748 87.5553 42.964C86.8353 43.18 86.0433 43.288 85.1793 43.288C84.0993 43.288 83.1153 43.144 82.2273 42.856C81.3633 42.544 80.7993 42.112 80.5353 41.56C80.3193 41.128 80.0793 40.492 79.8153 39.652C79.5753 38.788 79.3233 37.816 79.0593 36.736C78.7953 35.632 78.5193 34.444 78.2313 33.172C77.9673 31.9 77.7153 30.628 77.4753 29.356C77.2593 28.084 77.0553 26.848 76.8633 25.648C76.6713 24.424 76.5273 23.308 76.4313 22.3C76.7673 21.988 77.2353 21.7 77.8353 21.436C78.4353 21.172 79.0833 21.04 79.7793 21.04C80.6913 21.04 81.4353 21.244 82.0113 21.652C82.6113 22.036 82.9833 22.696 83.1273 23.632C83.5113 26.08 83.8233 28.12 84.0633 29.752C84.3273 31.384 84.5313 32.728 84.6753 33.784C84.8433 34.816 84.9633 35.62 85.0352 36.196C85.1073 36.772 85.1793 37.228 85.2513 37.564H85.4313C85.6473 36.604 85.8513 35.716 86.0433 34.9C86.2353 34.084 86.4273 33.268 86.6193 32.452C86.8353 31.612 87.0513 30.724 87.2673 29.788C87.4833 28.828 87.7113 27.736 87.9513 26.512ZM112.297 43.108C111.265 43.108 110.449 42.808 109.849 42.208C109.249 41.608 108.949 40.792 108.949 39.76V21.148C109.213 21.1 109.633 21.04 110.209 20.968C110.785 20.872 111.337 20.824 111.865 20.824C112.417 20.824 112.897 20.872 113.305 20.968C113.737 21.04 114.097 21.184 114.385 21.4C114.673 21.616 114.889 21.916 115.033 22.3C115.177 22.684 115.249 23.188 115.249 23.812V38.032H123.493C123.661 38.296 123.817 38.656 123.961 39.112C124.105 39.544 124.177 40 124.177 40.48C124.177 41.44 123.973 42.124 123.565 42.532C123.157 42.916 122.617 43.108 121.945 43.108H112.297Z" fill="black"/>
<path d="M33.6914 17.5781C34.5004 17.5781 35.1562 16.9223 35.1562 16.1133C35.1562 15.3043 34.5004 14.6484 33.6914 14.6484H32.2266C32.2266 12.513 31.052 10.5827 29.2443 9.56269C29.2793 9.30625 29.2969 9.04814 29.2969 8.78906C29.2969 5.5582 26.6684 2.92969 23.4375 2.92969C23.1784 2.92969 22.9203 2.94727 22.664 2.98223C21.6438 1.1748 19.7135 0 17.5781 0C15.4428 0 13.5124 1.1748 12.4923 2.98223C12.2359 2.94727 11.9778 2.92969 11.7188 2.92969C8.48789 2.92969 5.85938 5.5582 5.85938 8.78906C5.85938 9.04814 5.87695 9.30625 5.91191 9.56269C4.1043 10.5827 2.92969 12.513 2.92969 14.6484H1.46484C0.655859 14.6484 0 15.3043 0 16.1133C0 16.9223 0.655859 17.5781 1.46484 17.5781H3.05605L5.86533 48.667C5.9335 49.4219 6.56631 50 7.32422 50H27.832C28.5899 50 29.2228 49.4219 29.2909 48.667L32.1002 17.5781H33.6914ZM8.02832 11.8371C8.43223 11.7278 8.77012 11.451 8.95674 11.0765C9.14336 10.702 9.16094 10.2655 9.00498 9.87725C8.86172 9.52031 8.78906 9.1542 8.78906 8.78906C8.78906 7.17363 10.1033 5.85938 11.7188 5.85938C12.0839 5.85938 12.45 5.93203 12.8069 6.07539C13.1951 6.23135 13.6316 6.21377 14.0062 6.02705C14.3807 5.84043 14.6574 5.50254 14.7668 5.09854C15.1123 3.82158 16.2684 2.92969 17.5781 2.92969C18.8879 2.92969 20.0439 3.82158 20.3895 5.09863C20.4987 5.50254 20.7756 5.84043 21.1501 6.02715C21.5246 6.21387 21.961 6.23135 22.3493 6.07549C22.7062 5.93203 23.0724 5.85938 23.4375 5.85938C25.0529 5.85938 26.3672 7.17363 26.3672 8.78906C26.3672 9.1542 26.2945 9.52031 26.1513 9.87725C25.9953 10.2655 26.0129 10.702 26.1995 11.0765C26.3862 11.451 26.7241 11.7277 27.1279 11.8371C28.405 12.1826 29.2969 13.3387 29.2969 14.6484H5.85938C5.85938 13.3387 6.75127 12.1826 8.02832 11.8371ZM5.99775 17.5781H9.58623L10.9187 47.0703H8.6627L5.99775 17.5781ZM12.5188 17.5781H16.1133V47.0703H13.8513L12.5188 17.5781ZM19.043 47.0703V17.5781H22.6374L21.3049 47.0703H19.043ZM26.4936 47.0703H24.2376L25.5701 17.5781H29.1586L26.4936 47.0703Z" fill="black"/>
<path d="M50 38.2812C50 35.0504 47.3715 32.4219 44.1406 32.4219C40.9098 32.4219 38.2812 35.0504 38.2812 38.2812C35.0504 38.2812 32.4219 40.9098 32.4219 44.1406C32.4219 47.3715 35.0504 50 38.2812 50C39.3139 50 40.3221 49.7213 41.2109 49.2008C42.0998 49.7213 43.108 50 44.1406 50C47.3715 50 50 47.3715 50 44.1406C50 43.108 49.7213 42.0998 49.2008 41.2109C49.7213 40.3221 50 39.3139 50 38.2812ZM46.3063 42.1914C46.6549 42.5782 47.0703 43.2305 47.0703 44.1406C47.0703 45.7561 45.7561 47.0703 44.1406 47.0703C43.2305 47.0703 42.5782 46.6549 42.1914 46.3063C41.9128 46.0554 41.5619 45.9299 41.2109 45.9299C40.86 45.9299 40.5091 46.0554 40.2305 46.3063C39.8437 46.6549 39.1914 47.0703 38.2812 47.0703C36.6658 47.0703 35.3516 45.7561 35.3516 44.1406C35.3516 42.5252 36.6658 41.2109 38.2812 41.2109C38.7096 41.2109 39.1407 41.3162 39.5629 41.5239C40.1256 41.8008 40.8021 41.6888 41.2454 41.2454C41.6889 40.802 41.8009 40.1255 41.524 39.5629C41.3162 39.1408 41.2109 38.7096 41.2109 38.2812C41.2109 36.6658 42.5252 35.3516 44.1406 35.3516C45.7561 35.3516 47.0703 36.6658 47.0703 38.2812C47.0703 39.1914 46.6549 39.8437 46.3063 40.2305C45.8043 40.7878 45.8043 41.6341 46.3063 42.1914Z" fill="black"/>
<path d="M16.5423 12.1479C16.819 11.8711 17.1869 11.7188 17.5781 11.7188C17.9693 11.7188 18.3372 11.8711 18.614 12.1479C18.9 12.4339 19.2749 12.5769 19.6497 12.5769C20.0245 12.5769 20.3995 12.4338 20.6855 12.1478C21.2576 11.5757 21.2575 10.6482 20.6855 10.0762C19.8555 9.24619 18.752 8.78906 17.5781 8.78906C16.4043 8.78906 15.3008 9.24619 14.4707 10.0762C13.8986 10.6482 13.8986 11.5757 14.4707 12.1478C15.0428 12.7198 15.9702 12.7198 16.5423 12.1479Z" fill="black"/>
</svg>
